<svg width="76" height="57" viewBox="0 0 76 57" fill="none" xmlns="http://www.w3.org/2000/svg">
<path d="M39.8774 16.4827C42.2357 13.6729 45.7746 11.8876 49.729 11.8876C56.8302 11.8876 62.5865 17.6439 62.5865 24.7451C62.5865 26.5207 62.2261 28.2121 61.5758 29.7503" stroke="#0092BB" stroke-width="2" stroke-miterlimit="10" stroke-linecap="round" stroke-linejoin="round"/>
<path d="M39.2865 10.6159L35.1443 6.02496" stroke="#0092BB" stroke-width="2" stroke-miterlimit="10" stroke-linecap="round" stroke-linejoin="round"/>
<path d="M53.054 6.61598V1.30151" stroke="#0092BB" stroke-width="2" stroke-miterlimit="10" stroke-linecap="round" stroke-linejoin="round"/>
<path d="M64.3801 13.4492L68.8634 8.96594" stroke="#0092BB" stroke-width="2" stroke-miterlimit="10" stroke-linecap="round" stroke-linejoin="round"/>
<path d="M67.0811 23.6722H74.1656" stroke="#0092BB" stroke-width="2" stroke-miterlimit="10" stroke-linecap="round" stroke-linejoin="round"/>
<path d="M50.9676 29.9904C49.8547 29.9904 48.7819 30.1465 47.7519 30.4116C46.2883 23.8669 40.4547 18.9735 33.4695 18.9735C26.2427 18.9735 20.2544 24.212 19.0559 31.095C17.4653 30.3895 15.7076 29.9891 13.8547 29.9891C6.75492 29.9891 1 35.744 1 42.8437C1 49.9435 6.75492 55.6984 13.8547 55.6984C19.7435 55.6984 45.4046 55.6984 50.9676 55.6984C58.0674 55.6984 63.8223 49.9435 63.8223 42.8437C63.8223 35.744 58.0674 29.9904 50.9676 29.9904Z" fill="#C3E3EB" stroke="#0092BB" stroke-width="2" stroke-miterlimit="10" stroke-linecap="round" stroke-linejoin="round"/>
</svg>
